<svg width="161" height="193" viewBox="0 0 161 193" fill="none" xmlns="http://www.w3.org/2000/svg">
<path d="M136.2 149.63C136.089 147.293 135.428 145.016 134.271 142.983C133.114 140.949 131.493 139.218 129.54 137.93C127.6 136.79 125.85 136.74 124.61 137.55L120.06 140.11L129.61 156.58L134.12 154.02C135.38 153.33 136.18 151.82 136.2 149.63Z" fill="#37474F"/>
<path d="M124.81 140.61C126.76 141.901 128.379 143.633 129.536 145.666C130.693 147.698 131.355 149.974 131.47 152.31C131.47 156.61 128.41 158.31 124.71 156.16C122.76 154.869 121.141 153.137 119.984 151.104C118.827 149.072 118.165 146.796 118.05 144.46C118.08 140.16 121.11 138.44 124.81 140.61Z" fill="#455A64"/>
<path d="M122.49 147.06C122.49 145.38 123.49 144.61 124.78 145.35C125.472 145.85 126.037 146.507 126.428 147.266C126.819 148.025 127.025 148.866 127.03 149.72C127.03 151.4 126.03 152.16 124.74 151.43C124.051 150.927 123.488 150.27 123.098 149.511C122.707 148.753 122.499 147.913 122.49 147.06V147.06Z" fill="#263238"/>
<path opacity="0.15" d="M131.47 152.31C131.447 150.766 131.135 149.239 130.55 147.81L119 141.1C118.348 142.096 118.02 143.27 118.06 144.46C118.06 144.51 118.06 144.56 118.06 144.62L131.46 152.4C131.46 152.4 131.47 152.34 131.47 152.31Z" fill="black"/>
<path d="M88.32 186.22C85.8765 186.406 83.4259 185.965 81.2 184.94L18.2 148.63C14.39 146.71 10.11 141.73 9.84003 137.01L7.91003 92.1L11.42 91.9L13.36 136.82C13.54 140.02 16.89 144.04 19.77 145.48L82.82 181.8C84.5144 182.507 86.3474 182.819 88.1803 182.714C90.0132 182.608 91.7981 182.087 93.4 181.19L135.4 156.97C136.4 156.31 136.99 155.52 136.95 154.85C136.91 154.18 136.28 153.52 135.21 152.98L67.72 113.8C63.92 111.89 59.66 106.9 59.39 102.18L58.45 77.27L61.96 77.08L62.9 101.98C63.08 105.2 66.43 109.21 69.3 110.65L136.79 149.84C139.04 150.97 140.34 152.68 140.46 154.65C140.58 156.62 139.46 158.53 137.33 159.91L95.33 184.13C93.2091 185.411 90.7964 186.131 88.32 186.22Z" fill="#455A64"/>
<path d="M77 185.21C76.8892 182.873 76.2283 180.596 75.071 178.563C73.9137 176.529 72.2927 174.798 70.34 173.51C68.4 172.37 66.65 172.31 65.42 173.13L60.86 175.69L70.41 192.16L74.92 189.6C76.16 188.91 77 187.4 77 185.21Z" fill="#37474F"/>
<path d="M65.59 176.19C67.5441 177.479 69.1658 179.212 70.3232 181.247C71.4806 183.282 72.1408 185.561 72.25 187.9C72.25 192.19 69.2 193.9 65.49 191.74C63.5403 190.449 61.9221 188.718 60.7667 186.685C59.6114 184.652 58.9513 182.376 58.84 180.04C58.87 175.75 61.89 174 65.59 176.19Z" fill="#455A64"/>
<path d="M63.27 182.64C63.27 180.96 64.27 180.19 65.56 180.93C66.2535 181.429 66.8189 182.085 67.2099 182.845C67.601 183.604 67.8067 184.446 67.81 185.3C67.81 186.97 66.81 187.74 65.53 187C64.8378 186.501 64.2726 185.847 63.88 185.09C63.4874 184.332 63.2785 183.493 63.27 182.64V182.64Z" fill="#263238"/>
<path d="M30.42 158.36C30.3142 156.024 29.6585 153.746 28.5065 151.712C27.3545 149.677 25.7385 147.943 23.79 146.65C21.84 145.51 20.1 145.45 18.86 146.26L14.3 148.81L23.8201 165.3L28.34 162.74C29.6 162.06 30.4 160.55 30.42 158.36Z" fill="#37474F"/>
<path d="M19.05 149.33C20.994 150.619 22.6077 152.346 23.7611 154.373C24.9145 156.401 25.5753 158.67 25.69 161C25.69 165.29 22.62 167 18.92 164.83C16.9716 163.537 15.3556 161.803 14.2036 159.768C13.0515 157.734 12.3959 155.456 12.29 153.12C12.32 148.86 15.35 147.15 19.05 149.33Z" fill="#455A64"/>
<path d="M16.72 155.76C16.72 154.09 17.72 153.32 19.01 154.06C19.7011 154.561 20.2648 155.218 20.6557 155.977C21.0465 156.736 21.2535 157.576 21.26 158.43C21.26 160.11 20.26 160.87 18.96 160.14C18.2717 159.634 17.7108 158.975 17.322 158.215C16.9331 157.455 16.727 156.614 16.72 155.76Z" fill="#263238"/>
<path d="M0.380013 37.68C-0.216706 35.3926 -0.107169 32.9782 0.694237 30.7542C1.49564 28.5303 2.95138 26.601 4.87 25.22L46.78 1.52999C50.59 -0.970014 54.78 0.769982 56.1 5.11998L59.01 14.55L56.13 16.23L53 6.69998C52.8726 6.19039 52.6206 5.72046 52.2666 5.3324C51.9126 4.94434 51.4677 4.65033 50.9719 4.47681C50.4761 4.30328 49.945 4.25568 49.4262 4.33827C48.9075 4.42087 48.4174 4.63107 48 4.94998L7.19001 28C5.96753 28.8962 5.0372 30.1338 4.51589 31.5571C3.99459 32.9805 3.90555 34.5262 4.26 36L6.72001 45.05L3.29 47.05L0.380013 37.68Z" fill="#455A64"/>
<path d="M65.18 83.12L8.88 115.63L91.16 163.13L147.46 130.62L65.18 83.12Z" fill="#6415FF"/>
<path opacity="0.5" d="M65.18 83.12L8.88 115.63L91.16 163.13L147.46 130.62L65.18 83.12Z" fill="black"/>
<path d="M3.29004 47.11L59.01 14.56L65.18 83.12L8.88005 115.63L3.29004 47.11Z" fill="#6415FF"/>
<path opacity="0.35" d="M3.29004 47.11L59.01 14.56L65.18 83.12L8.88005 115.63L3.29004 47.11Z" fill="black"/>
<path d="M59 14.56L65.17 83.12L147.45 130.62L160.45 73.11L59 14.56ZM87.77 80.48C86.5818 80.8483 85.2963 80.7336 84.192 80.1609C83.0877 79.5881 82.2534 78.6034 81.87 77.42L68.27 42.13C67.9708 41.5737 67.7938 40.9599 67.7508 40.3297C67.7077 39.6995 67.7996 39.0674 68.0204 38.4756C68.2411 37.8837 68.5856 37.3458 69.0308 36.8977C69.476 36.4496 70.0117 36.1017 70.6021 35.8771C71.1925 35.6526 71.8241 35.5566 72.4545 35.5956C73.085 35.6346 73.6999 35.8077 74.2581 36.1032C74.8163 36.3988 75.3051 36.8101 75.6917 37.3097C76.0783 37.8092 76.3539 38.3855 76.5 39L90.1 74.29C90.6008 75.4201 90.6384 76.7015 90.2046 77.859C89.7707 79.0164 88.9002 79.9575 87.78 80.48H87.77ZM113.46 92.56C112.273 92.9342 110.986 92.8234 109.881 92.252C108.775 91.6805 107.941 90.6947 107.56 89.51L94 54.22C93.7015 53.6652 93.5244 53.0532 93.4806 52.4247C93.4368 51.7962 93.5273 51.1656 93.746 50.5748C93.9647 49.9839 94.3067 49.4464 94.7492 48.9979C95.1916 48.5494 95.7245 48.2002 96.3123 47.9735C96.9001 47.7468 97.5295 47.6478 98.1585 47.6831C98.7875 47.7184 99.4019 47.8871 99.9607 48.1781C100.519 48.4691 101.01 48.8757 101.399 49.3708C101.789 49.866 102.069 50.4384 102.22 51.05L115.82 86.34C116.331 87.4767 116.37 88.7696 115.93 89.9355C115.489 91.1013 114.605 92.0451 113.47 92.56H113.46ZM139.15 104.65C137.97 105.026 136.689 104.923 135.584 104.361C134.48 103.8 133.641 102.826 133.25 101.65L119.66 66.36C119.369 65.8069 119.199 65.1985 119.159 64.5748C119.12 63.9511 119.214 63.3262 119.433 62.7411C119.653 62.1561 119.994 61.6241 120.434 61.1801C120.873 60.7362 121.402 60.3903 121.985 60.1652C122.568 59.9401 123.192 59.8409 123.816 59.8741C124.44 59.9073 125.05 60.0721 125.606 60.3578C126.162 60.6435 126.651 61.0435 127.041 61.5316C127.431 62.0198 127.714 62.5849 127.87 63.19L141.47 98.48C141.968 99.6063 142.005 100.883 141.573 102.036C141.141 103.189 140.275 104.128 139.16 104.65H139.15Z" fill="#6415FF"/>
<path opacity="0.23" d="M59 14.56L65.17 83.12L147.45 130.62L160.45 73.11L59 14.56ZM87.77 80.48C86.5818 80.8483 85.2963 80.7336 84.192 80.1609C83.0877 79.5881 82.2534 78.6034 81.87 77.42L68.27 42.13C67.9708 41.5737 67.7938 40.9599 67.7508 40.3297C67.7077 39.6995 67.7996 39.0674 68.0204 38.4756C68.2411 37.8837 68.5856 37.3458 69.0308 36.8977C69.476 36.4496 70.0117 36.1017 70.6021 35.8771C71.1925 35.6526 71.8241 35.5566 72.4545 35.5956C73.085 35.6346 73.6999 35.8077 74.2581 36.1032C74.8163 36.3988 75.3051 36.8101 75.6917 37.3097C76.0783 37.8092 76.3539 38.3855 76.5 39L90.1 74.29C90.6008 75.4201 90.6384 76.7015 90.2046 77.859C89.7707 79.0164 88.9002 79.9575 87.78 80.48H87.77ZM113.46 92.56C112.273 92.9342 110.986 92.8234 109.881 92.252C108.775 91.6805 107.941 90.6947 107.56 89.51L94 54.22C93.7015 53.6652 93.5244 53.0532 93.4806 52.4247C93.4368 51.7962 93.5273 51.1656 93.746 50.5748C93.9647 49.9839 94.3067 49.4464 94.7492 48.9979C95.1916 48.5494 95.7245 48.2002 96.3123 47.9735C96.9001 47.7468 97.5295 47.6478 98.1585 47.6831C98.7875 47.7184 99.4019 47.8871 99.9607 48.1781C100.519 48.4691 101.01 48.8757 101.399 49.3708C101.789 49.866 102.069 50.4384 102.22 51.05L115.82 86.34C116.331 87.4767 116.37 88.7696 115.93 89.9355C115.489 91.1013 114.605 92.0451 113.47 92.56H113.46ZM139.15 104.65C137.97 105.026 136.689 104.923 135.584 104.361C134.48 103.8 133.641 102.826 133.25 101.65L119.66 66.36C119.369 65.8069 119.199 65.1985 119.159 64.5748C119.12 63.9511 119.214 63.3262 119.433 62.7411C119.653 62.1561 119.994 61.6241 120.434 61.1801C120.873 60.7362 121.402 60.3903 121.985 60.1652C122.568 59.9401 123.192 59.8409 123.816 59.8741C124.44 59.9073 125.05 60.0721 125.606 60.3578C126.162 60.6435 126.651 61.0435 127.041 61.5316C127.431 62.0198 127.714 62.5849 127.87 63.19L141.47 98.48C141.968 99.6063 142.005 100.883 141.573 102.036C141.141 103.189 140.275 104.128 139.16 104.65H139.15Z" fill="black"/>
<path d="M3.29004 47.11L8.88005 115.63L91.16 163.13L104.16 105.63L3.29004 47.11ZM35.7701 114.56C34.5818 114.928 33.2963 114.814 32.192 114.241C31.0877 113.668 30.2535 112.683 29.87 111.5L16.28 76.21C15.9872 75.6565 15.8151 75.0471 15.7749 74.4222C15.7348 73.7973 15.8276 73.1709 16.0473 72.5845C16.2669 71.9981 16.6084 71.4649 17.0492 71.0201C17.49 70.5753 18.0201 70.229 18.6045 70.0041C19.189 69.7791 19.8144 69.6806 20.4397 69.7151C21.065 69.7496 21.6758 69.9162 22.232 70.204C22.7881 70.4919 23.2769 70.8943 23.6662 71.3849C24.0554 71.8755 24.3362 72.443 24.4901 73.05L38.09 108.33C38.6033 109.464 38.6475 110.756 38.2129 111.923C37.7784 113.09 36.9003 114.038 35.7701 114.56V114.56ZM61.4601 126.64C60.2732 127.014 58.9864 126.903 57.8809 126.332C56.7754 125.76 55.9411 124.775 55.56 123.59L42 88.3C41.7015 87.7452 41.5245 87.1332 41.4807 86.5047C41.4369 85.8762 41.5274 85.2456 41.7461 84.6547C41.9648 84.0639 42.3068 83.5264 42.7492 83.0779C43.1917 82.6294 43.7245 82.2802 44.3124 82.0535C44.9002 81.8268 45.5295 81.7278 46.1586 81.7631C46.7876 81.7984 47.4019 81.9671 47.9607 82.2581C48.5195 82.5491 49.01 82.9557 49.3995 83.4508C49.7891 83.946 50.0688 84.5184 50.22 85.13L63.81 120.42C64.3209 121.557 64.3605 122.85 63.92 124.015C63.4796 125.181 62.595 126.125 61.4601 126.64V126.64ZM87.15 138.73C85.9645 139.104 84.6791 138.993 83.5752 138.421C82.4714 137.85 81.6389 136.864 81.26 135.68L67.66 100.39C67.3615 99.8352 67.1845 99.2232 67.1407 98.5947C67.0969 97.9662 67.1874 97.3356 67.4061 96.7447C67.6248 96.1539 67.9667 95.6164 68.4092 95.1679C68.8517 94.7194 69.3845 94.3702 69.9724 94.1435C70.5602 93.9168 71.1895 93.8178 71.8186 93.8531C72.4476 93.8884 73.0619 94.0571 73.6207 94.3481C74.1795 94.6391 74.67 95.0457 75.0595 95.5408C75.4491 96.036 75.7288 96.6084 75.8801 97.22L89.47 132.51C89.9829 133.643 90.0268 134.933 89.5921 136.098C89.1575 137.263 88.2796 138.21 87.15 138.73V138.73Z" fill="#6415FF"/>
<g opacity="0.15">
<path opacity="0.15" d="M3.29004 47.11L8.88005 115.63L91.16 163.13L104.16 105.63L3.29004 47.11ZM35.7701 114.56C34.5818 114.928 33.2963 114.814 32.192 114.241C31.0877 113.668 30.2535 112.683 29.87 111.5L16.28 76.21C15.9872 75.6565 15.8151 75.0471 15.7749 74.4222C15.7348 73.7973 15.8276 73.1709 16.0473 72.5845C16.2669 71.9981 16.6084 71.4649 17.0492 71.0201C17.49 70.5753 18.0201 70.229 18.6045 70.0041C19.189 69.7791 19.8144 69.6806 20.4397 69.7151C21.065 69.7496 21.6758 69.9162 22.232 70.204C22.7881 70.4919 23.2769 70.8943 23.6662 71.3849C24.0554 71.8755 24.3362 72.443 24.4901 73.05L38.09 108.33C38.6033 109.464 38.6475 110.756 38.2129 111.923C37.7784 113.09 36.9003 114.038 35.7701 114.56V114.56ZM61.4601 126.64C60.2732 127.014 58.9864 126.903 57.8809 126.332C56.7754 125.76 55.9411 124.775 55.56 123.59L42 88.3C41.7015 87.7452 41.5245 87.1332 41.4807 86.5047C41.4369 85.8762 41.5274 85.2456 41.7461 84.6547C41.9648 84.0639 42.3068 83.5264 42.7492 83.0779C43.1917 82.6294 43.7245 82.2802 44.3124 82.0535C44.9002 81.8268 45.5295 81.7278 46.1586 81.7631C46.7876 81.7984 47.4019 81.9671 47.9607 82.2581C48.5195 82.5491 49.01 82.9557 49.3995 83.4508C49.7891 83.946 50.0688 84.5184 50.22 85.13L63.81 120.42C64.3209 121.557 64.3605 122.85 63.92 124.015C63.4796 125.181 62.595 126.125 61.4601 126.64V126.64ZM87.15 138.73C85.9645 139.104 84.6791 138.993 83.5752 138.421C82.4714 137.85 81.6389 136.864 81.26 135.68L67.66 100.39C67.3615 99.8352 67.1845 99.2232 67.1407 98.5947C67.0969 97.9662 67.1874 97.3356 67.4061 96.7447C67.6248 96.1539 67.9667 95.6164 68.4092 95.1679C68.8517 94.7194 69.3845 94.3702 69.9724 94.1435C70.5602 93.9168 71.1895 93.8178 71.8186 93.8531C72.4476 93.8884 73.0619 94.0571 73.6207 94.3481C74.1795 94.6391 74.67 95.0457 75.0595 95.5408C75.4491 96.036 75.7288 96.6084 75.8801 97.22L89.47 132.51C89.9829 133.643 90.0268 134.933 89.5921 136.098C89.1575 137.263 88.2796 138.21 87.15 138.73V138.73Z" fill="black"/>
</g>
<path d="M104.15 105.63L160.45 73.12L147.46 130.63L91.16 163.13L104.15 105.63Z" fill="#6415FF"/>
<path opacity="0.4" d="M104.15 105.63L160.45 73.12L147.46 130.63L91.16 163.13L104.15 105.63Z" fill="black"/>
</svg>
