<svg width="222" height="222" viewBox="0 0 222 222" fill="none" xmlns="http://www.w3.org/2000/svg">
<circle cx="111" cy="111" r="111" fill="#E2E0E0"/>
<path d="M167.199 164.251C167.088 161.915 166.427 159.637 165.27 157.604C164.113 155.571 162.492 153.84 160.539 152.551C158.599 151.411 156.849 151.361 155.609 152.171L151.059 154.731L160.609 171.201L165.119 168.641C166.379 167.951 167.179 166.441 167.199 164.251Z" fill="#37474F"/>
<path d="M155.809 155.231C157.759 156.523 159.378 158.254 160.535 160.287C161.692 162.319 162.354 164.595 162.469 166.931C162.469 171.231 159.409 172.931 155.709 170.781C153.759 169.49 152.14 167.758 150.984 165.726C149.827 163.693 149.164 161.417 149.049 159.081C149.079 154.781 152.109 153.061 155.809 155.231Z" fill="#455A64"/>
<path d="M153.489 161.681C153.489 160.001 154.489 159.231 155.779 159.971C156.471 160.471 157.036 161.128 157.427 161.887C157.818 162.646 158.024 163.487 158.029 164.341C158.029 166.021 157.029 166.781 155.739 166.051C155.05 165.548 154.487 164.891 154.097 164.133C153.706 163.374 153.498 162.535 153.489 161.681V161.681Z" fill="#263238"/>
<path opacity="0.15" d="M162.469 166.931C162.447 165.387 162.135 163.861 161.549 162.431L149.999 155.721C149.347 156.718 149.019 157.891 149.059 159.081C149.059 159.131 149.059 159.181 149.059 159.241L162.459 167.021C162.459 167.021 162.469 166.961 162.469 166.931Z" fill="black"/>
<path d="M119.319 200.841C116.876 201.027 114.425 200.586 112.199 199.561L49.1992 163.251C45.3892 161.331 41.1092 156.351 40.8392 151.631L38.9092 106.721L42.4192 106.521L44.3592 151.441C44.5392 154.641 47.8892 158.661 50.7692 160.101L113.819 196.421C115.514 197.128 117.347 197.441 119.179 197.335C121.012 197.229 122.797 196.708 124.399 195.811L166.399 171.591C167.399 170.931 167.989 170.141 167.949 169.471C167.909 168.801 167.279 168.141 166.209 167.601L98.7192 128.421C94.9192 126.511 90.6592 121.521 90.3892 116.801L89.4492 91.8913L92.9592 91.7013L93.8992 116.601C94.0792 119.821 97.4292 123.831 100.299 125.271L167.789 164.461C170.039 165.591 171.339 167.301 171.459 169.271C171.579 171.241 170.459 173.151 168.329 174.531L126.329 198.751C124.208 200.033 121.796 200.752 119.319 200.841Z" fill="#455A64"/>
<path d="M107.999 199.831C107.888 197.495 107.227 195.217 106.07 193.184C104.913 191.151 103.292 189.42 101.339 188.131C99.3992 186.991 97.6492 186.931 96.4192 187.751L91.8592 190.311L101.409 206.781L105.919 204.221C107.159 203.531 107.999 202.021 107.999 199.831Z" fill="#37474F"/>
<path d="M96.5892 190.811C98.5433 192.101 100.165 193.833 101.322 195.868C102.48 197.903 103.14 200.183 103.249 202.521C103.249 206.811 100.199 208.521 96.4892 206.361C94.5395 205.071 92.9213 203.339 91.7659 201.306C90.6105 199.273 89.9505 196.997 89.8392 194.661C89.8692 190.371 92.8892 188.621 96.5892 190.811Z" fill="#455A64"/>
<path d="M94.2692 197.261C94.2692 195.581 95.2692 194.811 96.5592 195.551C97.2527 196.05 97.8181 196.706 98.2092 197.466C98.6002 198.226 98.8059 199.067 98.8092 199.921C98.8092 201.591 97.8092 202.361 96.5292 201.621C95.837 201.123 95.2718 200.468 94.8792 199.711C94.4867 198.953 94.2777 198.114 94.2692 197.261V197.261Z" fill="#263238"/>
<path d="M61.4192 172.981C61.3133 170.645 60.6577 168.368 59.5057 166.333C58.3536 164.298 56.7377 162.564 54.7892 161.271C52.8392 160.131 51.0992 160.071 49.8592 160.881L45.2992 163.431L54.8192 179.921L59.3392 177.361C60.5992 176.681 61.3992 175.171 61.4192 172.981Z" fill="#37474F"/>
<path d="M50.0492 163.951C51.9932 165.24 53.6069 166.968 54.7603 168.995C55.9137 171.022 56.5745 173.292 56.6892 175.621C56.6892 179.911 53.6192 181.621 49.9192 179.451C47.9707 178.159 46.3548 176.425 45.2028 174.39C44.0507 172.355 43.3951 170.077 43.2892 167.741C43.3192 163.481 46.3492 161.771 50.0492 163.951Z" fill="#455A64"/>
<path d="M47.7192 170.381C47.7192 168.711 48.7192 167.941 50.0092 168.681C50.7003 169.183 51.264 169.839 51.6548 170.598C52.0457 171.357 52.2527 172.198 52.2592 173.051C52.2592 174.731 51.2592 175.491 49.9592 174.761C49.2709 174.256 48.71 173.597 48.3212 172.836C47.9323 172.076 47.7262 171.235 47.7192 170.381Z" fill="#263238"/>
<path d="M31.3792 52.3013C30.7825 50.0139 30.892 47.5995 31.6934 45.3756C32.4949 43.1516 33.9506 41.2223 35.8692 39.8413L77.7792 16.1513C81.5892 13.6513 85.7792 15.3913 87.0992 19.7413L90.0092 29.1713L87.1292 30.8513L83.9992 21.3213C83.8718 20.8117 83.6198 20.3418 83.2658 19.9537C82.9118 19.5657 82.4669 19.2717 81.9711 19.0981C81.4753 18.9246 80.9442 18.877 80.4254 18.9596C79.9067 19.0422 79.4166 19.2524 78.9992 19.5713L38.1892 42.6213C36.9667 43.5176 36.0364 44.7551 35.5151 46.1785C34.9938 47.6018 34.9048 49.1475 35.2592 50.6213L37.7192 59.6713L34.2892 61.6713L31.3792 52.3013Z" fill="#455A64"/>
<path d="M96.1792 97.7413L39.8792 130.251L122.159 177.751L178.459 145.241L96.1792 97.7413Z" fill="#6415FF"/>
<path opacity="0.5" d="M96.1792 97.7413L39.8792 130.251L122.159 177.751L178.459 145.241L96.1792 97.7413Z" fill="black"/>
<path d="M34.2892 61.7313L90.0092 29.1813L96.1792 97.7413L39.8792 130.251L34.2892 61.7313Z" fill="#6415FF"/>
<path opacity="0.35" d="M34.2892 61.7313L90.0092 29.1813L96.1792 97.7413L39.8792 130.251L34.2892 61.7313Z" fill="black"/>
<path d="M89.9992 29.1813L96.1692 97.7413L178.449 145.241L191.449 87.7313L89.9992 29.1813ZM118.769 95.1013C117.581 95.4696 116.296 95.355 115.191 94.7822C114.087 94.2095 113.253 93.2248 112.869 92.0413L99.2692 56.7513C98.9701 56.195 98.793 55.5812 98.75 54.951C98.7069 54.3209 98.7989 53.6887 99.0196 53.0969C99.2403 52.5051 99.5848 51.9671 100.03 51.519C100.475 51.0709 101.011 50.723 101.601 50.4985C102.192 50.2739 102.823 50.1779 103.454 50.2169C104.084 50.2559 104.699 50.429 105.257 50.7246C105.816 51.0202 106.304 51.4315 106.691 51.931C107.078 52.4305 107.353 53.0068 107.499 53.6213L121.099 88.9113C121.6 90.0414 121.638 91.3229 121.204 92.4803C120.77 93.6378 119.899 94.5788 118.779 95.1013H118.769ZM144.459 107.181C143.272 107.556 141.986 107.445 140.88 106.873C139.775 106.302 138.94 105.316 138.559 104.131L124.999 68.8413C124.701 68.2865 124.524 67.6746 124.48 67.0461C124.436 66.4176 124.527 65.7869 124.745 65.1961C124.964 64.6053 125.306 64.0677 125.748 63.6192C126.191 63.1707 126.724 62.8215 127.312 62.5948C127.899 62.3681 128.529 62.2691 129.158 62.3044C129.787 62.3397 130.401 62.5085 130.96 62.7995C131.519 63.0905 132.009 63.497 132.399 63.9922C132.788 64.4873 133.068 65.0598 133.219 65.6713L146.819 100.961C147.33 102.098 147.37 103.391 146.929 104.557C146.489 105.723 145.604 106.666 144.469 107.181H144.459ZM170.149 119.271C168.969 119.648 167.688 119.544 166.583 118.982C165.479 118.421 164.64 117.447 164.249 116.271L150.659 80.9813C150.368 80.4283 150.198 79.8199 150.159 79.1962C150.12 78.5725 150.213 77.9476 150.432 77.3625C150.652 76.7774 150.993 76.2454 151.433 75.8015C151.873 75.3575 152.401 75.0116 152.984 74.7865C153.567 74.5614 154.191 74.4622 154.815 74.4954C155.439 74.5286 156.049 74.6935 156.605 74.9791C157.161 75.2648 157.65 75.6649 158.04 76.153C158.43 76.6411 158.713 77.2063 158.869 77.8113L172.469 113.101C172.967 114.228 173.004 115.504 172.572 116.657C172.141 117.811 171.274 118.749 170.159 119.271H170.149Z" fill="#6415FF"/>
<path opacity="0.23" d="M89.9992 29.1813L96.1692 97.7413L178.449 145.241L191.449 87.7313L89.9992 29.1813ZM118.769 95.1013C117.581 95.4696 116.296 95.355 115.191 94.7822C114.087 94.2095 113.253 93.2248 112.869 92.0413L99.2692 56.7513C98.9701 56.195 98.793 55.5812 98.75 54.951C98.7069 54.3209 98.7989 53.6887 99.0196 53.0969C99.2403 52.5051 99.5848 51.9671 100.03 51.519C100.475 51.0709 101.011 50.723 101.601 50.4985C102.192 50.2739 102.823 50.1779 103.454 50.2169C104.084 50.2559 104.699 50.429 105.257 50.7246C105.816 51.0202 106.304 51.4315 106.691 51.931C107.078 52.4305 107.353 53.0068 107.499 53.6213L121.099 88.9113C121.6 90.0414 121.638 91.3229 121.204 92.4803C120.77 93.6378 119.899 94.5788 118.779 95.1013H118.769ZM144.459 107.181C143.272 107.556 141.986 107.445 140.88 106.873C139.775 106.302 138.94 105.316 138.559 104.131L124.999 68.8413C124.701 68.2865 124.524 67.6746 124.48 67.0461C124.436 66.4176 124.527 65.7869 124.745 65.1961C124.964 64.6053 125.306 64.0677 125.748 63.6192C126.191 63.1707 126.724 62.8215 127.312 62.5948C127.899 62.3681 128.529 62.2691 129.158 62.3044C129.787 62.3397 130.401 62.5085 130.96 62.7995C131.519 63.0905 132.009 63.497 132.399 63.9922C132.788 64.4873 133.068 65.0598 133.219 65.6713L146.819 100.961C147.33 102.098 147.37 103.391 146.929 104.557C146.489 105.723 145.604 106.666 144.469 107.181H144.459ZM170.149 119.271C168.969 119.648 167.688 119.544 166.583 118.982C165.479 118.421 164.64 117.447 164.249 116.271L150.659 80.9813C150.368 80.4283 150.198 79.8199 150.159 79.1962C150.12 78.5725 150.213 77.9476 150.432 77.3625C150.652 76.7774 150.993 76.2454 151.433 75.8015C151.873 75.3575 152.401 75.0116 152.984 74.7865C153.567 74.5614 154.191 74.4622 154.815 74.4954C155.439 74.5286 156.049 74.6935 156.605 74.9791C157.161 75.2648 157.65 75.6649 158.04 76.153C158.43 76.6411 158.713 77.2063 158.869 77.8113L172.469 113.101C172.967 114.228 173.004 115.504 172.572 116.657C172.141 117.811 171.274 118.749 170.159 119.271H170.149Z" fill="black"/>
<path d="M34.2892 61.7313L39.8792 130.251L122.159 177.751L135.159 120.251L34.2892 61.7313ZM66.7692 129.181C65.581 129.55 64.2955 129.435 63.1912 128.862C62.0869 128.289 61.2527 127.305 60.8692 126.121L47.2792 90.8313C46.9864 90.2778 46.8142 89.6685 46.7741 89.0435C46.734 88.4186 46.8268 87.7923 47.0465 87.2058C47.2661 86.6194 47.6076 86.0862 48.0484 85.6414C48.4892 85.1966 49.0193 84.8503 49.6037 84.6254C50.1881 84.4005 50.8136 84.302 51.4389 84.3364C52.0641 84.3709 52.675 84.5376 53.2312 84.8254C53.7873 85.1132 54.2761 85.5157 54.6653 86.0062C55.0546 86.4968 55.3354 87.0643 55.4892 87.6713L69.0892 122.951C69.6025 124.086 69.6466 125.377 69.2121 126.544C68.7776 127.711 67.8995 128.659 66.7692 129.181V129.181ZM92.4592 141.261C91.2723 141.636 89.9856 141.525 88.8801 140.953C87.7746 140.382 86.9402 139.396 86.5592 138.211L72.9992 102.921C72.7007 102.367 72.5236 101.755 72.4799 101.126C72.4361 100.498 72.5265 99.8669 72.7453 99.2761C72.964 98.6852 73.3059 98.1477 73.7484 97.6992C74.1909 97.2507 74.7237 96.9015 75.3115 96.6748C75.8994 96.4481 76.5287 96.3491 77.1577 96.3844C77.7868 96.4197 78.4011 96.5884 78.9599 96.8794C79.5187 97.1704 80.0092 97.577 80.3987 98.0722C80.7882 98.5673 81.0679 99.1397 81.2192 99.7513L94.8092 135.041C95.3201 136.178 95.3597 137.471 94.9192 138.637C94.4787 139.803 93.5942 140.746 92.4592 141.261V141.261ZM118.149 153.351C116.964 153.725 115.678 153.614 114.574 153.043C113.471 152.471 112.638 151.485 112.259 150.301L98.6592 115.011C98.3607 114.457 98.1837 113.845 98.1399 113.216C98.0961 112.588 98.1865 111.957 98.4053 111.366C98.624 110.775 98.9659 110.238 99.4084 109.789C99.8509 109.341 100.384 108.992 100.972 108.765C101.559 108.538 102.189 108.439 102.818 108.474C103.447 108.51 104.061 108.678 104.62 108.969C105.179 109.26 105.669 109.667 106.059 110.162C106.448 110.657 106.728 111.23 106.879 111.841L120.469 147.131C120.982 148.264 121.026 149.554 120.591 150.72C120.157 151.885 119.279 152.831 118.149 153.351V153.351Z" fill="#6415FF"/>
<g opacity="0.15">
<path opacity="0.15" d="M34.2892 61.7313L39.8792 130.251L122.159 177.751L135.159 120.251L34.2892 61.7313ZM66.7692 129.181C65.581 129.55 64.2955 129.435 63.1912 128.862C62.0869 128.289 61.2527 127.305 60.8692 126.121L47.2792 90.8313C46.9864 90.2778 46.8142 89.6685 46.7741 89.0435C46.734 88.4186 46.8268 87.7923 47.0465 87.2058C47.2661 86.6194 47.6076 86.0862 48.0484 85.6414C48.4892 85.1966 49.0193 84.8503 49.6037 84.6254C50.1881 84.4005 50.8136 84.302 51.4389 84.3364C52.0641 84.3709 52.675 84.5376 53.2312 84.8254C53.7873 85.1132 54.2761 85.5157 54.6653 86.0062C55.0546 86.4968 55.3354 87.0643 55.4892 87.6713L69.0892 122.951C69.6025 124.086 69.6466 125.377 69.2121 126.544C68.7776 127.711 67.8995 128.659 66.7692 129.181V129.181ZM92.4592 141.261C91.2723 141.636 89.9856 141.525 88.8801 140.953C87.7746 140.382 86.9402 139.396 86.5592 138.211L72.9992 102.921C72.7007 102.367 72.5236 101.755 72.4799 101.126C72.4361 100.498 72.5265 99.8669 72.7453 99.2761C72.964 98.6852 73.3059 98.1477 73.7484 97.6992C74.1909 97.2507 74.7237 96.9015 75.3115 96.6748C75.8994 96.4481 76.5287 96.3491 77.1577 96.3844C77.7868 96.4197 78.4011 96.5884 78.9599 96.8794C79.5187 97.1704 80.0092 97.577 80.3987 98.0722C80.7882 98.5673 81.0679 99.1397 81.2192 99.7513L94.8092 135.041C95.3201 136.178 95.3597 137.471 94.9192 138.637C94.4787 139.803 93.5942 140.746 92.4592 141.261V141.261ZM118.149 153.351C116.964 153.725 115.678 153.614 114.574 153.043C113.471 152.471 112.638 151.485 112.259 150.301L98.6592 115.011C98.3607 114.457 98.1837 113.845 98.1399 113.216C98.0961 112.588 98.1865 111.957 98.4053 111.366C98.624 110.775 98.9659 110.238 99.4084 109.789C99.8509 109.341 100.384 108.992 100.972 108.765C101.559 108.538 102.189 108.439 102.818 108.474C103.447 108.51 104.061 108.678 104.62 108.969C105.179 109.26 105.669 109.667 106.059 110.162C106.448 110.657 106.728 111.23 106.879 111.841L120.469 147.131C120.982 148.264 121.026 149.554 120.591 150.72C120.157 151.885 119.279 152.831 118.149 153.351V153.351Z" fill="black"/>
</g>
<path d="M135.149 120.251L191.449 87.7413L178.459 145.251L122.159 177.751L135.149 120.251Z" fill="#6415FF"/>
<path opacity="0.4" d="M135.149 120.251L191.449 87.7413L178.459 145.251L122.159 177.751L135.149 120.251Z" fill="black"/>
</svg>
